<?xml version="1.0" encoding="UTF-8"?>
<!DOCTYPE svg PUBLIC "-//W3C//DTD SVG 1.1//EN" "http://www.w3.org/Graphics/SVG/1.1/DTD/svg11.dtd">
<svg xmlns="http://www.w3.org/2000/svg" version="1.1" width="192px" height="192px" style="shape-rendering:geometricPrecision; text-rendering:geometricPrecision; image-rendering:optimizeQuality; fill-rule:evenodd; clip-rule:evenodd" xmlns:xlink="http://www.w3.org/1999/xlink">
<g><path style="opacity:0.769" fill="#91809e" d="M 59.5,17.5 C 60.1667,17.5 60.8333,17.5 61.5,17.5C 57.4775,19.7339 53.1442,21.4005 48.5,22.5C 48.5,22.1667 48.5,21.8333 48.5,21.5C 52.0541,19.8911 55.7207,18.5578 59.5,17.5 Z"/></g>
<g><path style="opacity:1" fill="#fed552" d="M 90.5,17.5 C 92.4817,17.9954 94.4817,18.4954 96.5,19C 102.327,26.6574 108.66,33.8241 115.5,40.5C 130.773,58.4441 146.44,76.1108 162.5,93.5C 162.02,95.9486 161.02,98.1153 159.5,100C 152.438,103.861 145.438,107.695 138.5,111.5C 135.085,112.195 132.418,113.862 130.5,116.5C 129.687,117.653 128.687,117.653 127.5,116.5C 121.582,119.289 115.915,122.289 110.5,125.5C 105.36,128.072 100.027,130.072 94.5,131.5C 94.4257,129.589 93.4257,128.422 91.5,128C 89.5273,127.505 87.5273,127.338 85.5,127.5C 85.8333,126.833 86.1667,126.167 86.5,125.5C 87.4081,123.548 87.2414,121.548 86,119.5C 81.1768,113.853 76.8434,107.853 73,101.5C 64.3333,86.8333 55.6667,72.1667 47,57.5C 47.4221,54.3066 47.2554,51.1399 46.5,48C 49.1159,43.8176 49.1159,39.651 46.5,35.5C 58.9329,28.373 72.0996,22.7063 86,18.5C 87.4651,19.3295 88.9651,19.4962 90.5,19C 89.2617,18.31 89.2617,17.81 90.5,17.5 Z"/></g>
<g><path style="opacity:1" fill="#efe5e2" d="M 96.5,8.5 C 93.8344,8.93296 91.1677,9.43296 88.5,10C 67.704,17.2092 47.0373,24.7092 26.5,32.5C 33.7691,29.2018 41.1025,25.8685 48.5,22.5C 53.1442,21.4005 57.4775,19.7339 61.5,17.5C 71.3818,15.0224 81.0485,11.8558 90.5,8C 92.7116,7.21086 94.7116,7.37753 96.5,8.5 Z"/></g>
<g><path style="opacity:0.259" fill="#551658" d="M 152.5,69.5 C 151.833,69.5 151.167,69.5 150.5,69.5C 147.167,65.5 143.5,61.8333 139.5,58.5C 138.331,55.4887 136.664,52.822 134.5,50.5C 131.833,47.1667 128.833,44.1667 125.5,41.5C 124.599,39.2729 122.933,38.2729 120.5,38.5C 120.5,38.1667 120.5,37.8333 120.5,37.5C 120.011,36.0048 119.345,34.6715 118.5,33.5C 111.138,25.1412 103.804,16.8079 96.5,8.5C 94.7116,7.37753 92.7116,7.21086 90.5,8C 81.0485,11.8558 71.3818,15.0224 61.5,17.5C 60.8333,17.5 60.1667,17.5 59.5,17.5C 69.0301,13.9316 78.6968,10.4316 88.5,7C 91.4424,5.8756 94.4424,5.54227 97.5,6C 109.379,20.5382 121.879,34.3716 135,47.5C 136.667,50.1667 138.333,52.8333 140,55.5C 144.745,59.74 148.912,64.4067 152.5,69.5 Z"/></g>
<g><path style="opacity:1" fill="#c89054" d="M 118.5,33.5 C 119.345,34.6715 120.011,36.0048 120.5,37.5C 119.833,38.1667 119.167,38.8333 118.5,39.5C 117.504,39.5858 116.671,39.2524 116,38.5C 115.536,39.0944 115.369,39.7611 115.5,40.5C 108.66,33.8241 102.327,26.6574 96.5,19C 94.4817,18.4954 92.4817,17.9954 90.5,17.5C 89.5039,16.3349 88.1705,15.6682 86.5,15.5C 81.281,17.5733 75.9476,19.2399 70.5,20.5C 70.5,19.8333 70.1667,19.5 69.5,19.5C 75.0622,17.0339 80.8955,15.0339 87,13.5C 90.28,14.9746 93.78,15.8079 97.5,16C 103.293,23.4614 109.459,30.6281 116,37.5C 117.085,36.2644 117.918,34.9311 118.5,33.5 Z"/></g>
<g><path style="opacity:1" fill="#f9c95d" d="M 96.5,8.5 C 103.804,16.8079 111.138,25.1412 118.5,33.5C 117.918,34.9311 117.085,36.2644 116,37.5C 109.459,30.6281 103.293,23.4614 97.5,16C 93.78,15.8079 90.28,14.9746 87,13.5C 80.8955,15.0339 75.0622,17.0339 69.5,19.5C 57.2468,24.6956 44.9135,29.6956 32.5,34.5C 31.7261,33.8529 30.7261,33.5195 29.5,33.5C 26.2544,35.0392 23.0877,36.7059 20,38.5C 19.3292,37.7476 18.4959,37.4142 17.5,37.5C 20.0078,35.0764 23.0078,33.4097 26.5,32.5C 47.0373,24.7092 67.704,17.2092 88.5,10C 91.1677,9.43296 93.8344,8.93296 96.5,8.5 Z"/></g>
<g><path style="opacity:1" fill="#b77558" d="M 69.5,19.5 C 70.1667,19.5 70.5,19.8333 70.5,20.5C 59.268,25.4763 47.9347,30.4763 36.5,35.5C 35.6376,36.7658 34.9709,38.0992 34.5,39.5C 33.2976,38.5946 31.9643,38.5946 30.5,39.5C 31.9418,38.1805 32.6085,36.5138 32.5,34.5C 44.9135,29.6956 57.2468,24.6956 69.5,19.5 Z"/></g>
<g><path style="opacity:1" fill="#eae0e6" d="M 120.5,38.5 C 122.933,38.2729 124.599,39.2729 125.5,41.5C 123.152,41.4077 121.486,40.4077 120.5,38.5 Z"/></g>
<g><path style="opacity:1" fill="#f96d90" d="M 28.5,57.5 C 29.758,59.6869 30.758,62.0202 31.5,64.5C 33.2115,69.5897 35.7115,74.2564 39,78.5C 39.4643,77.9056 39.631,77.2389 39.5,76.5C 42.2974,80.4799 44.2974,84.4799 45.5,88.5C 56.7172,108.039 68.7172,127.039 81.5,145.5C 81.8417,146.338 82.5084,146.672 83.5,146.5C 81.8333,147.833 80.1667,149.167 78.5,150.5C 75.5299,150.746 74.1966,152.412 74.5,155.5C 73.5,155.5 72.5,155.5 71.5,155.5C 71.3291,153.007 72.3291,151.174 74.5,150C 72.3954,146.885 72.3954,143.885 74.5,141C 73.1238,138.558 71.2904,137.725 69,138.5C 67.6924,136.359 66.1924,134.359 64.5,132.5C 64.6957,134.337 64.3623,136.337 63.5,138.5C 51.2513,118.339 39.2513,98.006 27.5,77.5C 28.3635,78.463 29.0302,78.463 29.5,77.5C 28.1667,75.1667 26.8333,72.8333 25.5,70.5C 27.2786,68.8071 27.7786,66.8071 27,64.5C 24.3545,58.5422 21.1878,52.8756 17.5,47.5C 15.485,49.8071 14.485,52.1404 14.5,54.5C 13.8333,53.8333 13.1667,53.1667 12.5,52.5C 10.9583,48.6745 11.6249,45.3412 14.5,42.5C 15.1556,41.7222 15.9889,41.0556 17,40.5C 21.3381,45.8486 25.1715,51.5153 28.5,57.5 Z"/></g>
<g><path style="opacity:1" fill="#f8c958" d="M 120.5,37.5 C 120.5,37.8333 120.5,38.1667 120.5,38.5C 121.486,40.4077 123.152,41.4077 125.5,41.5C 128.833,44.1667 131.833,47.1667 134.5,50.5C 134.808,52.924 134.474,55.2573 133.5,57.5C 131.146,54.312 128.312,51.6453 125,49.5C 123.008,46.0172 120.842,42.6839 118.5,39.5C 119.167,38.8333 119.833,38.1667 120.5,37.5 Z"/></g>
<g><path style="opacity:1" fill="#facd53" d="M 90.5,17.5 C 89.2617,17.81 89.2617,18.31 90.5,19C 88.9651,19.4962 87.4651,19.3295 86,18.5C 72.0996,22.7063 58.9329,28.373 46.5,35.5C 49.1159,39.651 49.1159,43.8176 46.5,48C 47.2554,51.1399 47.4221,54.3066 47,57.5C 55.6667,72.1667 64.3333,86.8333 73,101.5C 76.8434,107.853 81.1768,113.853 86,119.5C 87.2414,121.548 87.4081,123.548 86.5,125.5C 81.444,119.11 76.7774,112.443 72.5,105.5C 59.9969,84.047 46.9969,62.547 33.5,41C 34.056,40.6174 34.3893,40.1174 34.5,39.5C 34.9709,38.0992 35.6376,36.7658 36.5,35.5C 47.9347,30.4763 59.268,25.4763 70.5,20.5C 75.9476,19.2399 81.281,17.5733 86.5,15.5C 88.1705,15.6682 89.5039,16.3349 90.5,17.5 Z"/></g>
<g><path style="opacity:1" fill="#d2a64b" d="M 41.5,37.5 C 44.3087,37.5878 45.642,39.0878 45.5,42C 43.361,42.5647 41.861,44.398 41,47.5C 39.6338,45.6297 38.4672,43.6297 37.5,41.5C 38.5487,39.7844 39.882,38.4511 41.5,37.5 Z"/></g>
<g><path style="opacity:0.059" fill="#ec5899" d="M 7.5,55.5 C 9.21321,56.6354 9.87988,58.302 9.5,60.5C 7.78679,59.3646 7.12012,57.698 7.5,55.5 Z"/></g>
<g><path style="opacity:1" fill="#a43a4f" d="M 28.5,57.5 C 32.0095,60.3577 34.3429,64.0243 35.5,68.5C 34.1667,67.1667 32.8333,65.8333 31.5,64.5C 30.758,62.0202 29.758,59.6869 28.5,57.5 Z"/></g>
<g><path style="opacity:1" fill="#f5943f" d="M 17.5,37.5 C 22.1694,44.8264 27.3361,51.8264 33,58.5C 36.3716,63.9099 39.2049,69.5765 41.5,75.5C 39.5,73.1667 37.5,70.8333 35.5,68.5C 34.3429,64.0243 32.0095,60.3577 28.5,57.5C 25.1715,51.5153 21.3381,45.8486 17,40.5C 15.9889,41.0556 15.1556,41.7222 14.5,42.5C 13.9131,40.3152 14.9131,38.6485 17.5,37.5 Z"/></g>
<g><path style="opacity:1" fill="#de5286" d="M 27.5,77.5 C 22.3951,70.2926 18.0618,62.6259 14.5,54.5C 14.485,52.1404 15.485,49.8071 17.5,47.5C 21.1878,52.8756 24.3545,58.5422 27,64.5C 27.7786,66.8071 27.2786,68.8071 25.5,70.5C 26.8333,72.8333 28.1667,75.1667 29.5,77.5C 29.0302,78.463 28.3635,78.463 27.5,77.5 Z"/></g>
<g><path style="opacity:0.971" fill="#54075a" d="M 48.5,21.5 C 48.5,21.8333 48.5,22.1667 48.5,22.5C 41.1025,25.8685 33.7691,29.2018 26.5,32.5C 23.0078,33.4097 20.0078,35.0764 17.5,37.5C 14.9131,38.6485 13.9131,40.3152 14.5,42.5C 11.6249,45.3412 10.9583,48.6745 12.5,52.5C 12.3354,55.5184 12.502,58.5184 13,61.5C 20.2607,74.4492 27.4273,87.4492 34.5,100.5C 37.9899,108.813 41.9899,116.813 46.5,124.5C 50.3103,132.788 54.6437,140.788 59.5,148.5C 63.0527,155.937 66.8861,163.271 71,170.5C 73.4172,173.734 75.9172,176.734 78.5,179.5C 80.8124,181.367 83.4791,181.867 86.5,181C 118.78,167.696 149.446,151.529 178.5,132.5C 179.452,130.955 179.785,129.288 179.5,127.5C 180.88,127.962 181.547,128.962 181.5,130.5C 180.351,132.797 179.185,135.13 178,137.5C 173.5,140.667 169,143.833 164.5,147C 146.601,154.949 129.267,163.949 112.5,174C 102.644,177.284 92.9773,180.95 83.5,185C 81.1667,185.667 78.8333,185.667 76.5,185C 72.8751,179.585 69.3751,174.085 66,168.5C 53.8775,141.584 40.2108,115.584 25,90.5C 20.0627,80.2896 14.896,70.2896 9.5,60.5C 9.87988,58.302 9.21321,56.6354 7.5,55.5C 8.87722,51.2546 10.0439,46.9213 11,42.5C 12.0608,39.4384 13.8941,36.9384 16.5,35C 27.0728,30.2118 37.7394,25.7118 48.5,21.5 Z"/></g>
<g><path style="opacity:1" fill="#9f6f8f" d="M 150.5,69.5 C 151.167,69.5 151.833,69.5 152.5,69.5C 153.167,69.5 153.5,69.8333 153.5,70.5C 153.5,71.5 153.5,72.5 153.5,73.5C 151.088,73.3059 150.088,71.9726 150.5,69.5 Z"/></g>
<g><path style="opacity:1" fill="#f98258" d="M 31.5,64.5 C 32.8333,65.8333 34.1667,67.1667 35.5,68.5C 36.3994,71.395 37.7328,74.0616 39.5,76.5C 39.631,77.2389 39.4643,77.9056 39,78.5C 35.7115,74.2564 33.2115,69.5897 31.5,64.5 Z"/></g>
<g><path style="opacity:0.357" fill="#511258" d="M 153.5,70.5 C 158.484,74.4865 162.817,79.1531 166.5,84.5C 165.833,84.5 165.167,84.5 164.5,84.5C 162.863,82.6838 161.363,80.6838 160,78.5C 158.223,76.2101 156.056,74.5434 153.5,73.5C 153.5,72.5 153.5,71.5 153.5,70.5 Z"/></g>
<g><path style="opacity:1" fill="#c18356" d="M 34.5,39.5 C 34.3893,40.1174 34.056,40.6174 33.5,41C 46.9969,62.547 59.9969,84.047 72.5,105.5C 72.5912,107.698 71.9245,108.031 70.5,106.5C 68.0499,104.371 66.3833,101.704 65.5,98.5C 64.9213,95.6689 63.588,93.3356 61.5,91.5C 50.5108,75.3018 40.0108,58.6351 30,41.5C 29.3083,40.5632 29.475,39.8966 30.5,39.5C 31.9643,38.5946 33.2976,38.5946 34.5,39.5 Z"/></g>
<g><path style="opacity:1" fill="#b97c59" d="M 118.5,39.5 C 120.842,42.6839 123.008,46.0172 125,49.5C 128.312,51.6453 131.146,54.312 133.5,57.5C 134.474,55.2573 134.808,52.924 134.5,50.5C 136.664,52.822 138.331,55.4887 139.5,58.5C 136.971,57.457 136.138,58.457 137,61.5C 147.923,72.4176 158.09,83.9176 167.5,96C 166.899,97.605 165.899,98.9384 164.5,100C 156.388,103.944 148.388,108.111 140.5,112.5C 140.158,111.662 139.492,111.328 138.5,111.5C 145.438,107.695 152.438,103.861 159.5,100C 161.02,98.1153 162.02,95.9486 162.5,93.5C 146.44,76.1108 130.773,58.4441 115.5,40.5C 115.369,39.7611 115.536,39.0944 116,38.5C 116.671,39.2524 117.504,39.5858 118.5,39.5 Z"/></g>
<g><path style="opacity:1" fill="#fdcf54" d="M 32.5,34.5 C 32.6085,36.5138 31.9418,38.1805 30.5,39.5C 29.475,39.8966 29.3083,40.5632 30,41.5C 40.0108,58.6351 50.5108,75.3018 61.5,91.5C 62.0787,94.3311 63.412,96.6644 65.5,98.5C 66.3833,101.704 68.0499,104.371 70.5,106.5C 75.1192,113.784 80.1192,120.784 85.5,127.5C 85.5,129.5 86.5,130.5 88.5,130.5C 89.8502,132.683 91.6836,134.35 94,135.5C 97.6058,133.465 101.439,132.132 105.5,131.5C 106.239,131.369 106.906,131.536 107.5,132C 105.695,132.972 104.028,134.139 102.5,135.5C 102.863,136.183 103.196,136.85 103.5,137.5C 102.5,137.833 101.833,138.5 101.5,139.5C 95.9727,141.898 90.306,143.898 84.5,145.5C 81.6029,134.372 76.6029,124.372 69.5,115.5C 67.1093,110.721 63.776,106.721 59.5,103.5C 55.2436,95.3129 50.2436,87.6463 44.5,80.5C 42.7497,79.3406 41.7497,77.674 41.5,75.5C 39.2049,69.5765 36.3716,63.9099 33,58.5C 27.3361,51.8264 22.1694,44.8264 17.5,37.5C 18.4959,37.4142 19.3292,37.7476 20,38.5C 23.0877,36.7059 26.2544,35.0392 29.5,33.5C 30.7261,33.5195 31.7261,33.8529 32.5,34.5 Z"/></g>
<g><path style="opacity:1" fill="#cd1c70" d="M 12.5,52.5 C 13.1667,53.1667 13.8333,53.8333 14.5,54.5C 18.0618,62.6259 22.3951,70.2926 27.5,77.5C 39.2513,98.006 51.2513,118.339 63.5,138.5C 63.5,138.833 63.5,139.167 63.5,139.5C 61.0771,139.576 59.2438,138.576 58,136.5C 57.5,136.833 57,137.167 56.5,137.5C 57.9131,140.661 59.5797,143.661 61.5,146.5C 60.7573,147.182 60.0906,147.849 59.5,148.5C 54.6437,140.788 50.3103,132.788 46.5,124.5C 46.5394,123.417 46.8728,122.417 47.5,121.5C 43.7451,114.991 40.2451,108.324 37,101.5C 36.3292,100.748 35.4959,100.414 34.5,100.5C 27.4273,87.4492 20.2607,74.4492 13,61.5C 12.502,58.5184 12.3354,55.5184 12.5,52.5 Z"/></g>
<g><path style="opacity:0.949" fill="#a88ba6" d="M 164.5,84.5 C 165.167,84.5 165.833,84.5 166.5,84.5C 166.833,85.1667 167.167,85.8333 167.5,86.5C 165.973,86.573 164.973,85.9063 164.5,84.5 Z"/></g>
<g><path style="opacity:1" fill="#f69348" d="M 44.5,80.5 C 50.2436,87.6463 55.2436,95.3129 59.5,103.5C 60.1157,104.798 60.1157,105.798 59.5,106.5C 53.9981,98.168 48.9981,89.5014 44.5,80.5 Z"/></g>
<g><path style="opacity:1" fill="#af6352" d="M 61.5,91.5 C 63.588,93.3356 64.9213,95.6689 65.5,98.5C 63.412,96.6644 62.0787,94.3311 61.5,91.5 Z"/></g>
<g><path style="opacity:0.796" fill="#520f56" d="M 166.5,84.5 C 169.274,85.7226 171.941,87.2226 174.5,89C 177.899,92.728 180.899,96.728 183.5,101C 183.01,102.982 182.01,104.649 180.5,106C 177.857,106.726 175.524,107.893 173.5,109.5C 173.5,108.167 173.5,106.833 173.5,105.5C 175.989,105.702 178.323,105.202 180.5,104C 181.337,102.989 181.67,101.822 181.5,100.5C 179.646,97.4905 177.313,94.8238 174.5,92.5C 174.5,91.8333 174.167,91.5 173.5,91.5C 172.135,89.1402 170.135,87.4735 167.5,86.5C 167.167,85.8333 166.833,85.1667 166.5,84.5 Z"/></g>
<g><path style="opacity:1" fill="#a0575e" d="M 174.5,92.5 C 177.313,94.8238 179.646,97.4905 181.5,100.5C 181.167,100.5 180.833,100.5 180.5,100.5C 177.078,99.0234 175.078,96.3567 174.5,92.5 Z"/></g>
<g><path style="opacity:1" fill="#9d3854" d="M 35.5,68.5 C 37.5,70.8333 39.5,73.1667 41.5,75.5C 41.7497,77.674 42.7497,79.3406 44.5,80.5C 48.9981,89.5014 53.9981,98.168 59.5,106.5C 61.6464,108.741 63.1464,111.408 64,114.5C 66.4003,116.729 68.567,119.063 70.5,121.5C 70.6287,123.216 70.962,124.883 71.5,126.5C 62.2788,115.084 54.2788,102.75 47.5,89.5C 47.0431,88.7025 46.3764,88.3691 45.5,88.5C 44.2974,84.4799 42.2974,80.4799 39.5,76.5C 37.7328,74.0616 36.3994,71.395 35.5,68.5 Z"/></g>
<g><path style="opacity:1" fill="#d89f53" d="M 173.5,91.5 C 174.167,91.5 174.5,91.8333 174.5,92.5C 175.078,96.3567 177.078,99.0234 180.5,100.5C 177.579,101.696 174.579,102.696 171.5,103.5C 171.414,101.323 170.747,99.323 169.5,97.5C 171.278,95.736 172.611,93.736 173.5,91.5 Z"/></g>
<g><path style="opacity:1" fill="#971269" d="M 34.5,100.5 C 35.4959,100.414 36.3292,100.748 37,101.5C 40.2451,108.324 43.7451,114.991 47.5,121.5C 46.8728,122.417 46.5394,123.417 46.5,124.5C 41.9899,116.813 37.9899,108.813 34.5,100.5 Z"/></g>
<g><path style="opacity:1" fill="#c8744a" d="M 59.5,103.5 C 63.776,106.721 67.1093,110.721 69.5,115.5C 69.8333,117.5 70.1667,119.5 70.5,121.5C 68.567,119.063 66.4003,116.729 64,114.5C 63.1464,111.408 61.6464,108.741 59.5,106.5C 60.1157,105.798 60.1157,104.798 59.5,103.5 Z"/></g>
<g><path style="opacity:1" fill="#f57c62" d="M 45.5,88.5 C 46.3764,88.3691 47.0431,88.7025 47.5,89.5C 54.2788,102.75 62.2788,115.084 71.5,126.5C 74.8333,132.5 78.1667,138.5 81.5,144.5C 81.5,144.833 81.5,145.167 81.5,145.5C 68.7172,127.039 56.7172,108.039 45.5,88.5 Z"/></g>
<g><path style="opacity:1" fill="#d49f58" d="M 138.5,111.5 C 139.492,111.328 140.158,111.662 140.5,112.5C 137.167,113.833 133.833,115.167 130.5,116.5C 132.418,113.862 135.085,112.195 138.5,111.5 Z"/></g>
<g><path style="opacity:1" fill="#c8919b" d="M 171.5,111.5 C 171.672,112.492 171.338,113.158 170.5,113.5C 149.736,122.716 129.402,132.716 109.5,143.5C 110.527,141.806 111.861,140.473 113.5,139.5C 132.01,129.078 151.01,119.411 170.5,110.5C 171.107,110.624 171.44,110.957 171.5,111.5 Z"/></g>
<g><path style="opacity:1" fill="#f8c957" d="M 139.5,58.5 C 143.5,61.8333 147.167,65.5 150.5,69.5C 150.088,71.9726 151.088,73.3059 153.5,73.5C 156.056,74.5434 158.223,76.2101 160,78.5C 161.363,80.6838 162.863,82.6838 164.5,84.5C 164.973,85.9063 165.973,86.573 167.5,86.5C 170.135,87.4735 172.135,89.1402 173.5,91.5C 172.611,93.736 171.278,95.736 169.5,97.5C 170.747,99.323 171.414,101.323 171.5,103.5C 148.276,113.779 125.609,125.112 103.5,137.5C 103.196,136.85 102.863,136.183 102.5,135.5C 104.028,134.139 105.695,132.972 107.5,132C 106.906,131.536 106.239,131.369 105.5,131.5C 107.5,130.167 109.5,128.833 111.5,127.5C 121.645,123.262 131.312,118.262 140.5,112.5C 148.388,108.111 156.388,103.944 164.5,100C 165.899,98.9384 166.899,97.605 167.5,96C 158.09,83.9176 147.923,72.4176 137,61.5C 136.138,58.457 136.971,57.457 139.5,58.5 Z"/></g>
<g><path style="opacity:1" fill="#cc98a1" d="M 170.5,115.5 C 170.5,117.167 170.5,118.833 170.5,120.5C 166.675,121.074 163.009,122.241 159.5,124C 148.961,129.607 138.295,134.607 127.5,139C 135.676,134.412 144.009,130.078 152.5,126C 153.696,125.346 153.696,124.846 152.5,124.5C 147.833,126.833 143.167,129.167 138.5,131.5C 137.304,131.154 137.304,130.654 138.5,130C 148.981,124.677 159.648,119.843 170.5,115.5 Z"/></g>
<g><path style="opacity:1" fill="#aa6559" d="M 72.5,105.5 C 76.7774,112.443 81.444,119.11 86.5,125.5C 86.1667,126.167 85.8333,126.833 85.5,127.5C 80.1192,120.784 75.1192,113.784 70.5,106.5C 71.9245,108.031 72.5912,107.698 72.5,105.5 Z"/></g>
<g><path style="opacity:1" fill="#a66a57" d="M 140.5,112.5 C 131.312,118.262 121.645,123.262 111.5,127.5C 113.031,126.075 112.698,125.409 110.5,125.5C 115.915,122.289 121.582,119.289 127.5,116.5C 128.687,117.653 129.687,117.653 130.5,116.5C 133.833,115.167 137.167,113.833 140.5,112.5 Z"/></g>
<g><path style="opacity:0.969" fill="#6a286a" d="M 173.5,109.5 C 172.588,113.131 172.421,116.797 173,120.5C 174.707,122.037 176.207,123.704 177.5,125.5C 175.391,124.597 173.391,123.763 171.5,123C 172.861,124.584 173.528,126.418 173.5,128.5C 172.833,127.833 172.167,127.167 171.5,126.5C 171.5,126.167 171.5,125.833 171.5,125.5C 170.89,124.609 170.557,123.609 170.5,122.5C 170.5,121.833 170.5,121.167 170.5,120.5C 170.5,118.833 170.5,117.167 170.5,115.5C 170.5,114.833 170.5,114.167 170.5,113.5C 171.338,113.158 171.672,112.492 171.5,111.5C 172.167,110.833 172.833,110.167 173.5,109.5 Z"/></g>
<g><path style="opacity:1" fill="#f68e4c" d="M 69.5,115.5 C 76.6029,124.372 81.6029,134.372 84.5,145.5C 84.5,146.167 84.1667,146.5 83.5,146.5C 82.5084,146.672 81.8417,146.338 81.5,145.5C 81.5,145.167 81.5,144.833 81.5,144.5C 83.0281,144.483 83.5281,143.816 83,142.5C 79.3902,136.923 75.5568,131.59 71.5,126.5C 70.962,124.883 70.6287,123.216 70.5,121.5C 70.1667,119.5 69.8333,117.5 69.5,115.5 Z"/></g>
<g><path style="opacity:1" fill="#c38c9d" d="M 170.5,122.5 C 170.557,123.609 170.89,124.609 171.5,125.5C 165.91,127.628 160.577,130.295 155.5,133.5C 153.865,132.67 152.198,132.503 150.5,133C 157.063,129.22 163.729,125.72 170.5,122.5 Z"/></g>
<g><path style="opacity:1" fill="#ac6357" d="M 85.5,127.5 C 87.5273,127.338 89.5273,127.505 91.5,128C 93.4257,128.422 94.4257,129.589 94.5,131.5C 92.7508,129.469 90.7508,129.135 88.5,130.5C 86.5,130.5 85.5,129.5 85.5,127.5 Z"/></g>
<g><path style="opacity:1" fill="#9d3c78" d="M 180.5,100.5 C 180.833,100.5 181.167,100.5 181.5,100.5C 181.67,101.822 181.337,102.989 180.5,104C 178.323,105.202 175.989,105.702 173.5,105.5C 173.5,106.833 173.5,108.167 173.5,109.5C 172.833,110.167 172.167,110.833 171.5,111.5C 171.44,110.957 171.107,110.624 170.5,110.5C 151.01,119.411 132.01,129.078 113.5,139.5C 111.653,138.427 109.653,138.427 107.5,139.5C 107.631,138.624 107.298,137.957 106.5,137.5C 104.925,138.456 103.258,139.123 101.5,139.5C 101.833,138.5 102.5,137.833 103.5,137.5C 125.609,125.112 148.276,113.779 171.5,103.5C 174.579,102.696 177.579,101.696 180.5,100.5 Z"/></g>
<g><path style="opacity:1" fill="#cc528b" d="M 135.5,121.5 C 137.379,121.393 137.712,121.893 136.5,123C 130.5,126.333 124.5,129.667 118.5,133C 119.167,133.333 119.833,133.667 120.5,134C 118.945,135.289 117.279,135.956 115.5,136C 116.696,135.346 116.696,134.846 115.5,134.5C 113.831,135.89 112.164,136.223 110.5,135.5C 118.852,130.802 127.186,126.135 135.5,121.5 Z"/></g>
<g><path style="opacity:1" fill="#973154" d="M 71.5,126.5 C 75.5568,131.59 79.3902,136.923 83,142.5C 83.5281,143.816 83.0281,144.483 81.5,144.5C 78.1667,138.5 74.8333,132.5 71.5,126.5 Z"/></g>
<g><path style="opacity:1" fill="#bd8055" d="M 110.5,125.5 C 112.698,125.409 113.031,126.075 111.5,127.5C 109.5,128.833 107.5,130.167 105.5,131.5C 101.439,132.132 97.6058,133.465 94,135.5C 91.6836,134.35 89.8502,132.683 88.5,130.5C 90.7508,129.135 92.7508,129.469 94.5,131.5C 100.027,130.072 105.36,128.072 110.5,125.5 Z"/></g>
<g><path style="opacity:1" fill="#b78098" d="M 171.5,126.5 C 172.167,127.167 172.833,127.833 173.5,128.5C 169.466,132.536 165.132,136.202 160.5,139.5C 161.463,138.637 161.463,137.97 160.5,137.5C 158.598,139.151 156.598,139.484 154.5,138.5C 151.36,140.406 148.027,141.74 144.5,142.5C 153.959,137.937 162.959,132.604 171.5,126.5 Z"/></g>
<g><path style="opacity:1" fill="#f3c2b6" d="M 170.5,113.5 C 170.5,114.167 170.5,114.833 170.5,115.5C 159.648,119.843 148.981,124.677 138.5,130C 137.304,130.654 137.304,131.154 138.5,131.5C 143.167,129.167 147.833,126.833 152.5,124.5C 153.696,124.846 153.696,125.346 152.5,126C 144.009,130.078 135.676,134.412 127.5,139C 138.295,134.607 148.961,129.607 159.5,124C 163.009,122.241 166.675,121.074 170.5,120.5C 170.5,121.167 170.5,121.833 170.5,122.5C 163.729,125.72 157.063,129.22 150.5,133C 152.198,132.503 153.865,132.67 155.5,133.5C 160.577,130.295 165.91,127.628 171.5,125.5C 171.5,125.833 171.5,126.167 171.5,126.5C 162.959,132.604 153.959,137.937 144.5,142.5C 143.508,142.328 142.842,142.662 142.5,143.5C 143.552,143.351 144.552,143.517 145.5,144C 141.104,146.527 136.771,149.027 132.5,151.5C 117.867,159.983 102.867,167.649 87.5,174.5C 85.1667,174.5 82.8333,174.5 80.5,174.5C 80.5,172.167 80.5,169.833 80.5,167.5C 83.4802,166.677 86.1469,165.343 88.5,163.5C 85.8333,164.167 83.1667,164.833 80.5,165.5C 80.5,164.167 80.5,162.833 80.5,161.5C 86.4403,155.851 93.4403,151.684 101.5,149C 104.407,147.391 107.073,145.558 109.5,143.5C 129.402,132.716 149.736,122.716 170.5,113.5 Z"/></g>
<g><path style="opacity:1" fill="#f16995" d="M 107.5,139.5 C 103.157,141.088 98.9905,143.088 95,145.5C 94.3123,144.668 94.479,144.002 95.5,143.5C 97.9106,142.639 99.9106,141.306 101.5,139.5C 103.258,139.123 104.925,138.456 106.5,137.5C 107.298,137.957 107.631,138.624 107.5,139.5 Z"/></g>
<g><path style="opacity:1" fill="#d19ca3" d="M 160.5,139.5 C 156.941,143.115 152.607,145.449 147.5,146.5C 142.589,148.457 137.589,150.123 132.5,151.5C 136.771,149.027 141.104,146.527 145.5,144C 144.552,143.517 143.552,143.351 142.5,143.5C 142.842,142.662 143.508,142.328 144.5,142.5C 148.027,141.74 151.36,140.406 154.5,138.5C 156.598,139.484 158.598,139.151 160.5,137.5C 161.463,137.97 161.463,138.637 160.5,139.5 Z"/></g>
<g><path style="opacity:1" fill="#da5589" d="M 78.5,150.5 C 76.3502,153.472 75.3502,156.805 75.5,160.5C 75.6716,161.492 75.3382,162.158 74.5,162.5C 73.4196,160.004 72.0862,157.67 70.5,155.5C 69.2894,149.739 66.9561,144.406 63.5,139.5C 63.5,139.167 63.5,138.833 63.5,138.5C 64.3623,136.337 64.6957,134.337 64.5,132.5C 66.1924,134.359 67.6924,136.359 69,138.5C 71.2904,137.725 73.1238,138.558 74.5,141C 72.3954,143.885 72.3954,146.885 74.5,150C 72.3291,151.174 71.3291,153.007 71.5,155.5C 72.5,155.5 73.5,155.5 74.5,155.5C 74.1966,152.412 75.5299,150.746 78.5,150.5 Z"/></g>
<g><path style="opacity:1" fill="#b6608c" d="M 113.5,139.5 C 111.861,140.473 110.527,141.806 109.5,143.5C 107.073,145.558 104.407,147.391 101.5,149C 93.4403,151.684 86.4403,155.851 80.5,161.5C 79.2588,158.537 79.2588,155.537 80.5,152.5C 85.0544,150.462 89.721,148.629 94.5,147C 99.2232,144.978 103.557,142.478 107.5,139.5C 109.653,138.427 111.653,138.427 113.5,139.5 Z"/></g>
<g><path style="opacity:1" fill="#a3347a" d="M 101.5,139.5 C 99.9106,141.306 97.9106,142.639 95.5,143.5C 94.479,144.002 94.3123,144.668 95,145.5C 98.9905,143.088 103.157,141.088 107.5,139.5C 103.557,142.478 99.2232,144.978 94.5,147C 89.721,148.629 85.0544,150.462 80.5,152.5C 79.2588,155.537 79.2588,158.537 80.5,161.5C 79.2584,163.389 79.2584,165.389 80.5,167.5C 79.7784,167.918 79.2784,168.584 79,169.5C 78.6667,165.833 78.3333,162.167 78,158.5C 77.51,159.793 77.3433,161.127 77.5,162.5C 76.8333,161.833 76.1667,161.167 75.5,160.5C 75.3502,156.805 76.3502,153.472 78.5,150.5C 80.1667,149.167 81.8333,147.833 83.5,146.5C 84.1667,146.5 84.5,146.167 84.5,145.5C 90.306,143.898 95.9727,141.898 101.5,139.5 Z"/></g>
<g><path style="opacity:1" fill="#d19da2" d="M 142.5,143.5 C 141.257,146.106 139.924,146.106 138.5,143.5C 136.09,145.372 133.423,146.705 130.5,147.5C 130.631,146.624 130.298,145.957 129.5,145.5C 124.396,148.563 119.062,150.73 113.5,152C 124.99,146.422 136.323,140.589 147.5,134.5C 148.696,134.846 148.696,135.346 147.5,136C 145.004,137.08 142.67,138.414 140.5,140C 141.833,140 143.167,140 144.5,140C 143.167,141 141.833,142 140.5,143C 141.094,143.464 141.761,143.631 142.5,143.5 Z"/></g>
<g><path style="opacity:1" fill="#ba8095" d="M 130.5,147.5 C 125.316,151.26 119.65,154.26 113.5,156.5C 118.684,152.74 124.35,149.74 130.5,147.5 Z"/></g>
<g><path style="opacity:1" fill="#a8146c" d="M 63.5,139.5 C 66.9561,144.406 69.2894,149.739 70.5,155.5C 68.1397,153.287 66.3063,150.621 65,147.5C 64.3457,146.304 63.8457,146.304 63.5,147.5C 67.1807,154.524 70.014,161.858 72,169.5C 75.3906,174.701 76.2239,174.035 74.5,167.5C 75.1667,166.833 75.8333,166.167 76.5,165.5C 75.8075,164.482 75.1408,163.482 74.5,162.5C 75.3382,162.158 75.6716,161.492 75.5,160.5C 76.1667,161.167 76.8333,161.833 77.5,162.5C 77.447,168.196 77.7803,173.862 78.5,179.5C 75.9172,176.734 73.4172,173.734 71,170.5C 66.8861,163.271 63.0527,155.937 59.5,148.5C 60.0906,147.849 60.7573,147.182 61.5,146.5C 59.5797,143.661 57.9131,140.661 56.5,137.5C 57,137.167 57.5,136.833 58,136.5C 59.2438,138.576 61.0771,139.576 63.5,139.5 Z"/></g>
<g><path style="opacity:1" fill="#7f3c71" d="M 147.5,146.5 C 128.595,156.838 109.261,166.672 89.5,176C 87.1902,176.497 84.8568,176.663 82.5,176.5C 84.1667,175.833 85.8333,175.167 87.5,174.5C 102.867,167.649 117.867,159.983 132.5,151.5C 137.589,150.123 142.589,148.457 147.5,146.5 Z"/></g>
<g><path style="opacity:1" fill="#c1889a" d="M 113.5,156.5 C 109.565,159.473 105.232,161.306 100.5,162C 104.635,159.597 108.968,157.763 113.5,156.5 Z"/></g>
<g><path style="opacity:1" fill="#640665" d="M 70.5,155.5 C 72.0862,157.67 73.4196,160.004 74.5,162.5C 75.1408,163.482 75.8075,164.482 76.5,165.5C 75.8333,166.167 75.1667,166.833 74.5,167.5C 76.2239,174.035 75.3906,174.701 72,169.5C 70.014,161.858 67.1807,154.524 63.5,147.5C 63.8457,146.304 64.3457,146.304 65,147.5C 66.3063,150.621 68.1397,153.287 70.5,155.5 Z"/></g>
<g><path style="opacity:1" fill="#c04d7e" d="M 177.5,125.5 C 178.5,125.833 179.167,126.5 179.5,127.5C 179.785,129.288 179.452,130.955 178.5,132.5C 149.446,151.529 118.78,167.696 86.5,181C 83.4791,181.867 80.8124,181.367 78.5,179.5C 77.7803,173.862 77.447,168.196 77.5,162.5C 77.3433,161.127 77.51,159.793 78,158.5C 78.3333,162.167 78.6667,165.833 79,169.5C 79.2784,168.584 79.7784,167.918 80.5,167.5C 80.5,169.833 80.5,172.167 80.5,174.5C 82.8333,174.5 85.1667,174.5 87.5,174.5C 85.8333,175.167 84.1667,175.833 82.5,176.5C 81.9569,176.56 81.6236,176.893 81.5,177.5C 86.7183,178.452 91.7183,177.618 96.5,175C 117.593,164.62 138.593,153.953 159.5,143C 165.359,138.308 171.359,133.808 177.5,129.5C 178.292,128.3 178.292,126.967 177.5,125.5 Z"/></g>
<g><path style="opacity:1" fill="#b97e96" d="M 80.5,161.5 C 80.5,162.833 80.5,164.167 80.5,165.5C 83.1667,164.833 85.8333,164.167 88.5,163.5C 86.1469,165.343 83.4802,166.677 80.5,167.5C 79.2584,165.389 79.2584,163.389 80.5,161.5 Z"/></g>
<g><path style="opacity:1" fill="#ba7f96" d="M 88.5,163.5 C 90.425,161.538 92.7583,160.705 95.5,161C 93.3496,162.411 91.0163,163.245 88.5,163.5 Z"/></g>
<g><path style="opacity:1" fill="#edb26e" d="M 177.5,125.5 C 178.292,126.967 178.292,128.3 177.5,129.5C 171.359,133.808 165.359,138.308 159.5,143C 138.593,153.953 117.593,164.62 96.5,175C 91.7183,177.618 86.7183,178.452 81.5,177.5C 81.6236,176.893 81.9569,176.56 82.5,176.5C 84.8568,176.663 87.1902,176.497 89.5,176C 109.261,166.672 128.595,156.838 147.5,146.5C 152.607,145.449 156.941,143.115 160.5,139.5C 165.132,136.202 169.466,132.536 173.5,128.5C 173.528,126.418 172.861,124.584 171.5,123C 173.391,123.763 175.391,124.597 177.5,125.5 Z"/></g>
</svg>
